<?xml version="1.0" encoding="utf-8"?>
<!-- Generator: Adobe Illustrator 22.0.0, SVG Export Plug-In . SVG Version: 6.00 Build 0)  -->
<svg version="1.1" xmlns="http://www.w3.org/2000/svg" xmlns:xlink="http://www.w3.org/1999/xlink" x="0px" y="0px"
	 viewBox="0 0 1080 1080" style="enable-background:new 0 0 1080 1080;" xml:space="preserve">
<style type="text/css">
	.st0{fill:#6B6667;}
	.st1{fill:#B71E4A;}
</style>
<g id="leg-l">
	<path class="st0" d="M703.3,985c-19.2,0-36.8-12.6-42.3-32c-0.1-0.3-9.3-32-25.3-66.9c-25.9-56.3-47.1-72.4-55-76.7
		c-5.7-3.1-8.6-2.7-11.1-1.9c-47.9,14.2-87.3,20-120.3,17.7c-33-2.2-59.5-12.7-78.8-31c-41.9-39.8-29.9-95.7-28.4-102l85.6,20.6
		c0,0,0.1-0.3,0.2-0.8c0,0.1-2.2,13.4,3.4,18.5c2.2,2,24.2,18.9,113.4-7.4c26.3-7.8,53.4-4.6,78.5,9.2c34.5,19,65.8,58.7,93,118.2
		c18.7,40.8,29,76.8,29.5,78.4c6.7,23.4-6.9,47.7-30.3,54.4C711.4,984.5,707.3,985,703.3,985z"/>
</g>
<g id="leg-r">
	<path class="st0" d="M795.2,898.8c-19.2,0-36.8-12.6-42.3-32c-0.1-0.3-9.3-32-25.3-66.9c-25.9-56.3-47.1-72.4-55-76.7
		c-5.7-3.1-8.6-2.7-11.1-1.9c-47.9,14.2-87.3,20-120.3,17.7c-33-2.2-59.5-12.7-78.8-31c-41.9-39.8-29.9-95.7-28.4-102l85.6,20.6
		c0,0,0.1-0.3,0.2-0.8c0,0.1-2.2,13.4,3.4,18.5c2.2,2,24.2,18.9,113.4-7.4c26.3-7.8,53.4-4.6,78.5,9.2c34.5,19,65.8,58.7,93,118.2
		c18.7,40.8,29,76.8,29.5,78.4c6.7,23.4-6.9,47.7-30.3,54.4C803.3,898.3,799.2,898.8,795.2,898.8z"/>
</g>
<g id="right">
	<path d="M630,532c-43.9,0-83.9-19.7-116-57.5c-24.3-28.6-35.8-58.1-36.2-59.3l54.2-20.7l0-0.1c0.1,0.2,9,22.6,27.3,43.7
		c22,25.3,47.5,37.3,75.8,35.8c68-3.7,187.9-90.4,228.3-123.5c12.4-10.1,30.7-8.3,40.8,4.1c10.1,12.4,8.3,30.7-4.1,40.8
		c-1.6,1.3-40.1,32.7-90.6,65.1c-70.3,45-127.9,69.1-171.2,71.5C635.4,532,632.7,532,630,532z"/>
</g>
<g id="body_1_">
	<path id="body" class="st1" d="M575.4,700.4l-171.6,50.4c-27.8,8.2-56.9-7.7-65-35.5l-70.6-240.2c-8.2-27.8,7.7-56.9,35.5-65
		l171.6-50.4c27.8-8.2,56.9,7.7,65,35.5l70.6,240.2C619.1,663.1,603.2,692.2,575.4,700.4z"/>
</g>
<g id="left">
	<path d="M466.5,806.6c-2.6,0-5.1,0-7.7-0.1c-81.1-1.3-136-22.3-163-62.4c-58.3-86.5-27.1-211.5-25.7-216.8
		c4-15.5,19.8-24.9,35.3-20.9c15.5,4,24.8,19.8,20.9,35.3c-0.5,1.8-25.8,105.5,17.6,170c15.3,22.7,56.1,35.8,115,36.8
		c50.1,0.9,95.3-7.3,95.8-7.4c15.8-2.9,30.9,7.5,33.8,23.2s-7.5,30.9-23.2,33.8C563.2,798.5,519,806.6,466.5,806.6z"/>
</g>
<g id="head">
	<g>
		<circle id="head_1_" class="st1" cx="347.3" cy="283.6" r="229.2"/>
		<path d="M347.3,513.4c-61.4,0-119.1-23.9-162.4-67.3c-43.4-43.4-67.3-101.1-67.3-162.4s23.9-119.1,67.3-162.4
			c43.4-43.4,101.1-67.3,162.4-67.3s119.1,23.9,162.4,67.3c43.4,43.4,67.3,101.1,67.3,162.4s-23.9,119.1-67.3,162.4
			C466.4,489.5,408.7,513.4,347.3,513.4z M347.3,54.9c-126.1,0-228.7,102.6-228.7,228.7s102.6,228.7,228.7,228.7
			S576,409.8,576,283.6S473.4,54.9,347.3,54.9z"/>
	</g>
</g>
</svg>
